<?xml version="1.0" encoding="UTF-8" standalone="no"?>
<!DOCTYPE svg PUBLIC "-//W3C//DTD SVG 20010904//EN"
              "http://www.w3.org/TR/2001/REC-SVG-20010904/DTD/svg10.dtd">

<svg xmlns="http://www.w3.org/2000/svg"
     width="118" height="126"
     viewBox="0 0 118 126">
  <path fill="#079378"
        d="M 9.88,12.00
           C 9.88,12.00 106.00,12.00 106.00,12.00
             106.00,12.00 65.06,53.25 65.06,53.25
             65.06,53.25 103.44,91.62 103.44,91.62
             103.44,91.62 96.75,98.69 96.75,98.69
             96.75,98.69 63.00,64.81 63.00,64.81
             63.00,64.81 63.00,114.97 63.00,114.97
             63.00,114.97 52.61,115.00 52.61,115.00
             52.61,115.00 52.62,64.88 52.62,64.88
             52.62,64.88 19.25,98.62 19.25,98.62
             19.25,98.62 11.81,91.75 11.81,91.75
             11.81,91.75 50.94,53.06 50.94,53.06
             50.94,53.06 9.88,12.00 9.88,12.00 Z" />
  <path fill="#fff"
        d="M 34.88,22.25
          C 34.88,22.25 81.53,22.20 81.53,22.20
            81.53,22.20 62.78,41.13 62.78,41.13
            62.78,41.13 62.80,32.06 62.80,32.06
            62.80,32.06 52.70,32.06 52.70,32.06
            52.70,32.06 52.75,41.19 52.75,41.19
            52.75,41.19 34.88,22.25 34.88,22.25 Z" />
</svg>
